<svg width="30" height="30" viewBox="0 0 30 30" fill="none" xmlns="http://www.w3.org/2000/svg">
<path d="M15 0C6.72923 0 0 6.72923 0 15C0 23.2708 6.72923 30 15 30C23.2708 30 30 23.2708 30 15C30 6.72923 23.2708 0 15 0ZM15 2.30769C21.9981 2.30769 27.6923 8.00192 27.6923 15C27.6923 21.9981 21.9981 27.6923 15 27.6923C9.10557 27.6923 4.15219 23.6472 2.73137 18.1911L6.96139 20.003C7.15609 21.7303 8.60528 23.0769 10.3846 23.0769C12.2965 23.0769 13.8462 21.5273 13.8462 19.6154C13.8462 19.5785 13.836 19.543 13.8349 19.5072L18.6553 16.1358C21.113 16.032 23.0769 14.0215 23.0769 11.5385C23.0769 8.98962 21.0104 6.92308 18.4615 6.92308C15.9785 6.92308 13.9691 8.88696 13.8664 11.3447L10.4928 16.1651C10.4559 16.164 10.4215 16.1538 10.3846 16.1538C9.61926 16.1538 8.91818 16.4095 8.3451 16.8299L2.346 14.2586C2.73331 7.6061 8.2522 2.30769 15 2.30769ZM18.4615 8.07692C20.3735 8.07692 21.9231 9.62654 21.9231 11.5385C21.9231 13.4504 20.3735 15 18.4615 15C16.5496 15 15 13.4504 15 11.5385C15 9.62654 16.5496 8.07692 18.4615 8.07692ZM18.4615 9.23077C17.8495 9.23077 17.2625 9.4739 16.8298 9.90668C16.397 10.3395 16.1538 10.9264 16.1538 11.5385C16.1538 12.1505 16.397 12.7375 16.8298 13.1702C17.2625 13.603 17.8495 13.8462 18.4615 13.8462C19.0736 13.8462 19.6605 13.603 20.0933 13.1702C20.5261 12.7375 20.7692 12.1505 20.7692 11.5385C20.7692 10.9264 20.5261 10.3395 20.0933 9.90668C19.6605 9.4739 19.0736 9.23077 18.4615 9.23077ZM10.3846 17.3077C11.6596 17.3077 12.6923 18.3404 12.6923 19.6154C12.6923 20.8904 11.6596 21.9231 10.3846 21.9231C9.4514 21.9231 8.65243 21.3675 8.28876 20.5709L9.19246 20.9585C9.414 21.0543 9.64574 21.1005 9.87305 21.1005C10.5446 21.1005 11.1848 20.7069 11.4663 20.0503C11.8425 19.1723 11.4351 18.1549 10.5559 17.7787L9.71529 17.4181C9.92853 17.3531 10.1501 17.3077 10.3846 17.3077Z" fill="white"/>
</svg>
