<svg width="30" height="29" viewBox="0 0 30 29" fill="none" xmlns="http://www.w3.org/2000/svg">
<path d="M4.21875 0.609863C2.53125 0.609863 1.17188 1.96924 1.17188 3.65674V10.1021C1.17188 12.0942 2.8125 13.7349 4.80469 13.7349C6 13.7349 7.07812 13.1488 7.73438 12.2348C8.39062 13.1488 9.46875 13.7349 10.6641 13.7349C11.8594 13.7349 12.9375 13.1488 13.5938 12.2348C14.25 13.1488 15.3281 13.7349 16.5234 13.7349C17.7188 13.7349 18.7969 13.1488 19.4531 12.2348C20.1094 13.1488 21.1875 13.7349 22.3828 13.7349C24.375 13.7349 26.0156 12.0942 26.0156 10.1021V3.65674C26.0156 1.96924 24.6562 0.609863 22.9688 0.609863H4.21875ZM4.21875 2.01611H7.03125V10.1021C7.03125 11.3208 6.02344 12.3286 4.80469 12.3286C3.58594 12.3286 2.57812 11.3208 2.57812 10.1021V3.65674C2.57812 2.74268 3.30469 2.01611 4.21875 2.01611ZM8.4375 2.01611H12.8906V10.1021C12.8906 11.3208 11.8828 12.3286 10.6641 12.3286C9.44531 12.3286 8.4375 11.3208 8.4375 10.1021V2.01611ZM14.2969 2.01611H18.75V10.1021C18.75 11.3208 17.7422 12.3286 16.5234 12.3286C15.3047 12.3286 14.2969 11.3208 14.2969 10.1021V2.01611ZM20.1562 2.01611H22.9688C23.8828 2.01611 24.6094 2.74268 24.6094 3.65674V10.1021C24.6094 11.3208 23.6016 12.3286 22.3828 12.3286C21.1641 12.3286 20.1562 11.3208 20.1562 10.1021V2.01611ZM28.8281 2.95361C28.4297 2.95361 28.125 3.2583 28.125 3.65674V6.00049C28.125 6.39893 28.4297 6.70361 28.8281 6.70361C29.2266 6.70361 29.5312 6.39893 29.5312 6.00049V3.65674C29.5312 3.2583 29.2266 2.95361 28.8281 2.95361ZM28.8281 9.98486C28.4297 9.98486 28.125 10.2896 28.125 10.688V28.7349H9.60938V17.2505C9.60938 16.8521 9.30469 16.5474 8.90625 16.5474H3.04688C2.64844 16.5474 2.34375 16.8521 2.34375 17.2505V28.7349H0.703125C0.304688 28.7349 0 29.0396 0 29.438C0 29.8364 0.304688 30.1411 0.703125 30.1411H3.04688C3.44531 30.1411 3.75 29.8364 3.75 29.438V17.9536H8.20312V29.438C8.20312 29.8364 8.50781 30.1411 8.90625 30.1411H28.8281C29.2266 30.1411 29.5312 29.8364 29.5312 29.438V10.688C29.5312 10.2896 29.2266 9.98486 28.8281 9.98486ZM12.1875 16.5474C11.7891 16.5474 11.4844 16.8521 11.4844 17.2505V25.9224C11.4844 26.3208 11.7891 26.6255 12.1875 26.6255H25.3125C25.7109 26.6255 26.0156 26.3208 26.0156 25.9224V17.2505C26.0156 16.8521 25.7109 16.5474 25.3125 16.5474H12.1875ZM12.8906 17.9536H24.6094V25.2192H12.8906V17.9536Z" fill="white"/>
</svg>
