<svg width="27" height="22" viewBox="0 0 27 22" fill="none" xmlns="http://www.w3.org/2000/svg">
<path d="M7.82812 0.375488C6.13542 0.375488 4.84221 1.67235 3.82788 3.31006C2.81356 4.94777 2.01552 7.06833 1.45117 9.2854C0.886826 11.5025 0.5625 13.8081 0.5625 15.8149C0.5625 17.8218 0.792084 19.5499 1.8186 20.6904C2.29144 21.2158 2.91007 21.5561 3.54712 21.6243C4.18417 21.6925 4.78541 21.5136 5.31958 21.2373C6.38791 20.6847 7.30102 19.7299 8.15527 18.7129C9.00953 17.6959 9.78268 16.6035 10.3879 15.7869C10.6906 15.3786 10.9545 15.0371 11.1362 14.8335C11.1787 14.7859 11.1888 14.7806 11.2192 14.7505H13.7656H13.7705H16.3169C16.3473 14.7806 16.3576 14.7861 16.3999 14.8335C16.5816 15.0371 16.8456 15.3786 17.1482 15.7869C17.7535 16.6035 18.5266 17.6959 19.3809 18.7129C20.2351 19.7299 21.1482 20.6847 22.2166 21.2373C22.7507 21.5136 23.3507 21.6925 23.9878 21.6243C24.6248 21.5561 25.2435 21.2158 25.7163 20.6904C26.7429 19.5498 26.9728 17.8218 26.9724 15.8149C26.9721 13.8081 26.6471 11.5012 26.0825 9.28418C25.5179 7.06715 24.7199 4.94769 23.7058 3.31006C22.6918 1.67243 21.4001 0.375488 19.708 0.375488C17.9536 0.375488 16.768 0.963807 15.9141 1.46313C15.0602 1.96246 14.5902 2.29443 13.7705 2.29443H13.7656C12.946 2.29443 12.476 1.96246 11.6221 1.46313C10.7682 0.963807 9.5825 0.375488 7.82812 0.375488ZM7.82812 2.25049C9.19875 2.25049 9.88808 2.62174 10.6748 3.08179C11.4615 3.54183 12.3978 4.16943 13.7656 4.16943H13.7705C15.1384 4.16943 16.0734 3.54183 16.8601 3.08179C17.6468 2.62174 18.3374 2.25049 19.708 2.25049C20.3575 2.25049 21.251 2.90667 22.1116 4.29639C22.9721 5.6861 23.7364 7.66821 24.2661 9.74805C24.7958 11.8279 25.0971 14.0132 25.0974 15.8149C25.0977 17.6167 24.7031 19.0137 24.3235 19.4355C24.0932 19.6914 23.9501 19.7418 23.7888 19.759C23.6275 19.7763 23.3926 19.7354 23.0771 19.5723C22.4463 19.2459 21.6028 18.443 20.8164 17.5068C20.03 16.5707 19.2797 15.5147 18.6545 14.6711C18.3419 14.2494 18.0639 13.8829 17.7988 13.5859C17.6663 13.4375 17.54 13.3049 17.3801 13.1794C17.2202 13.054 17.0322 12.8755 16.583 12.8755H13.7705H13.7656H10.9531C10.5039 12.8755 10.3159 13.054 10.156 13.1794C9.99613 13.3049 9.86983 13.4375 9.7373 13.5859C9.47225 13.8829 9.1942 14.2494 8.88159 14.6711C8.25638 15.5147 7.5061 16.5707 6.71973 17.5068C5.93335 18.443 5.08865 19.2459 4.45776 19.5723C4.14232 19.7354 3.9086 19.7763 3.74731 19.759C3.58603 19.7418 3.44294 19.6914 3.21265 19.4355C2.83292 19.0136 2.4375 17.6167 2.4375 15.8149C2.4375 14.0132 2.73817 11.8266 3.26758 9.74683C3.79698 7.66702 4.56144 5.68602 5.42212 4.29639C6.28279 2.90676 7.17708 2.25049 7.82812 2.25049ZM19.0781 5.37549C18.8295 5.37549 18.591 5.47426 18.4152 5.65008C18.2394 5.82589 18.1406 6.06435 18.1406 6.31299C18.1406 6.56163 18.2394 6.80009 18.4152 6.9759C18.591 7.15172 18.8295 7.25049 19.0781 7.25049C19.3268 7.25049 19.5652 7.15172 19.741 6.9759C19.9169 6.80009 20.0156 6.56163 20.0156 6.31299C20.0156 6.06435 19.9169 5.82589 19.741 5.65008C19.5652 5.47426 19.3268 5.37549 19.0781 5.37549ZM8.43848 5.98706C8.19005 5.99094 7.95332 6.09327 7.78028 6.27157C7.60725 6.44987 7.51206 6.68956 7.51562 6.93799V7.87549H6.57812C6.4539 7.87373 6.33055 7.89668 6.21527 7.94301C6.09999 7.98933 5.99506 8.05811 5.90659 8.14534C5.81812 8.23257 5.74787 8.33651 5.69992 8.45113C5.65197 8.56574 5.62727 8.68875 5.62727 8.81299C5.62727 8.93723 5.65197 9.06023 5.69992 9.17485C5.74787 9.28947 5.81812 9.39341 5.90659 9.48064C5.99506 9.56787 6.09999 9.63664 6.21527 9.68297C6.33055 9.72929 6.4539 9.75224 6.57812 9.75049H7.51562V10.688C7.51387 10.8122 7.53682 10.9356 7.58314 11.0508C7.62947 11.1661 7.69825 11.2711 7.78547 11.3595C7.8727 11.448 7.97665 11.5182 8.09126 11.5662C8.20588 11.6141 8.32888 11.6388 8.45312 11.6388C8.57737 11.6388 8.70037 11.6141 8.81499 11.5662C8.9296 11.5182 9.03355 11.448 9.12077 11.3595C9.208 11.2711 9.27678 11.1661 9.3231 11.0508C9.36943 10.9356 9.39238 10.8122 9.39062 10.688V9.75049H10.3281C10.4524 9.75224 10.5757 9.72929 10.691 9.68297C10.8063 9.63664 10.9112 9.56787 10.9997 9.48064C11.0881 9.39341 11.1584 9.28947 11.2063 9.17485C11.2543 9.06023 11.279 8.93723 11.279 8.81299C11.279 8.68875 11.2543 8.56574 11.2063 8.45113C11.1584 8.33651 11.0881 8.23257 10.9997 8.14534C10.9112 8.05811 10.8063 7.98933 10.691 7.94301C10.5757 7.89668 10.4524 7.87373 10.3281 7.87549H9.39062V6.93799C9.39242 6.81251 9.36902 6.68795 9.32179 6.57168C9.27456 6.45542 9.20447 6.34981 9.11568 6.26114C9.02689 6.17246 8.9212 6.1025 8.80487 6.05543C8.68855 6.00835 8.56395 5.9851 8.43848 5.98706ZM16.5781 7.87549C16.3295 7.87549 16.091 7.97426 15.9152 8.15008C15.7394 8.32589 15.6406 8.56435 15.6406 8.81299C15.6406 9.06163 15.7394 9.30009 15.9152 9.4759C16.091 9.65172 16.3295 9.75049 16.5781 9.75049C16.8268 9.75049 17.0652 9.65172 17.241 9.4759C17.4169 9.30009 17.5156 9.06163 17.5156 8.81299C17.5156 8.56435 17.4169 8.32589 17.241 8.15008C17.0652 7.97426 16.8268 7.87549 16.5781 7.87549ZM21.5781 7.87549C21.3295 7.87549 21.091 7.97426 20.9152 8.15008C20.7394 8.32589 20.6406 8.56435 20.6406 8.81299C20.6406 9.06163 20.7394 9.30009 20.9152 9.4759C21.091 9.65172 21.3295 9.75049 21.5781 9.75049C21.8268 9.75049 22.0652 9.65172 22.241 9.4759C22.4169 9.30009 22.5156 9.06163 22.5156 8.81299C22.5156 8.56435 22.4169 8.32589 22.241 8.15008C22.0652 7.97426 21.8268 7.87549 21.5781 7.87549ZM19.0781 10.3755C18.8295 10.3755 18.591 10.4743 18.4152 10.6501C18.2394 10.8259 18.1406 11.0643 18.1406 11.313C18.1406 11.5616 18.2394 11.8001 18.4152 11.9759C18.591 12.1517 18.8295 12.2505 19.0781 12.2505C19.3268 12.2505 19.5652 12.1517 19.741 11.9759C19.9169 11.8001 20.0156 11.5616 20.0156 11.313C20.0156 11.0643 19.9169 10.8259 19.741 10.6501C19.5652 10.4743 19.3268 10.3755 19.0781 10.3755Z" fill="white"/>
</svg>
