<svg width="27" height="23" viewBox="0 0 27 23" fill="none" xmlns="http://www.w3.org/2000/svg">
<path d="M24.7656 0.375488H2.76562C1.66062 0.375488 0.765625 1.27049 0.765625 2.37549V20.3755C0.765625 21.4805 1.66062 22.3755 2.76562 22.3755H24.7656C25.8706 22.3755 26.7656 21.4805 26.7656 20.3755V2.37549C26.7656 1.27049 25.8706 0.375488 24.7656 0.375488ZM24.7656 5.37549H21.7656V2.37549H24.7656V5.37549ZM24.7656 10.3755H21.7656V7.37549H24.7656V10.3755ZM20.2656 12.3755H7.26562C6.98962 12.3755 6.76562 12.1515 6.76562 11.8755C6.76562 11.5995 6.98962 11.3755 7.26562 11.3755H20.2656C20.5416 11.3755 20.7656 11.5995 20.7656 11.8755C20.7656 12.1515 20.5416 12.3755 20.2656 12.3755ZM24.7656 15.3755H21.7656V12.3755H24.7656V15.3755ZM24.7656 20.3755H21.7656V17.3755H24.7656V20.3755ZM5.76562 5.37549H2.76562V2.37549H5.76562V5.37549ZM5.76562 10.3755H2.76562V7.37549H5.76562V10.3755ZM5.76562 15.3755H2.76562V12.3755H5.76562V15.3755ZM5.76562 20.3755H2.76562V17.3755H5.76562V20.3755Z" fill="white"/>
</svg>
