<svg width="30" height="30" viewBox="0 0 30 30" fill="none" xmlns="http://www.w3.org/2000/svg">
<path d="M14.7656 18.8755C16.1463 18.8755 17.2656 17.7562 17.2656 16.3755C17.2656 14.9948 16.1463 13.8755 14.7656 13.8755C13.3849 13.8755 12.2656 14.9948 12.2656 16.3755C12.2656 17.7562 13.3849 18.8755 14.7656 18.8755Z" fill="white"/>
<path d="M17.2656 22.6255C17.2656 21.2442 16.1469 20.1255 14.7656 20.1255C13.3844 20.1255 12.2656 21.2442 12.2656 22.6255C12.2656 23.5617 13.1119 27.413 13.1119 27.413L13.1194 27.4117C13.2181 28.238 13.9131 28.8805 14.7656 28.8805C15.6181 28.8805 16.3131 28.238 16.4119 27.4117L16.4194 27.413C16.4194 27.413 17.2656 23.5517 17.2656 22.6255Z" fill="white"/>
<path opacity="0.35" d="M13.8544 8.92923C10.6094 9.31423 7.9119 11.8717 7.37315 15.0942C7.05315 17.0092 7.4669 18.8167 8.37565 20.2892C8.91815 21.168 10.2169 21.0942 10.6207 20.1442C10.7757 19.7805 10.7632 19.358 10.5507 19.0255C9.8119 17.8717 9.5194 16.4117 10.0007 14.8517C10.5119 13.1942 11.9132 11.8905 13.6044 11.5067C16.8644 10.7692 19.7657 13.2392 19.7657 16.3755C19.7657 17.3542 19.4707 18.258 18.9794 19.0267C18.7669 19.358 18.7569 19.7817 18.9107 20.1442C19.3144 21.0942 20.6132 21.1692 21.1557 20.2905C21.8582 19.1505 22.2657 17.8105 22.2657 16.3755C22.2657 11.9392 18.3957 8.39173 13.8544 8.92923Z" fill="white"/>
<path opacity="0.35" d="M12.3843 4.09674C7.36804 5.02799 3.35304 9.08674 2.46554 14.1117C1.49554 19.6055 4.14304 24.598 8.41679 27.1267C9.34054 27.673 10.4805 26.8517 10.273 25.7992C10.203 25.4455 9.97804 25.1517 9.66804 24.9667C6.30429 22.9642 4.20429 19.0505 4.89804 14.728C5.59679 10.3792 9.24054 6.92924 13.6168 6.43799C19.643 5.76424 24.7655 10.483 24.7655 16.3755C24.7655 20.0292 22.793 23.2255 19.8593 24.9692C19.5505 25.153 19.3243 25.4467 19.2555 25.7992C19.048 26.8505 20.1843 27.6767 21.1068 27.1305C24.7893 24.9555 27.2655 20.953 27.2655 16.3755C27.2655 8.70424 20.3193 2.62424 12.3843 4.09674Z" fill="white"/>
</svg>
