<svg width="30" height="30" viewBox="0 0 30 30" fill="none" xmlns="http://www.w3.org/2000/svg">
<path d="M17.7656 20.3755V18.3755C18.2156 18.1525 19.5026 16.6205 19.6376 15.4235C19.9916 15.3965 20.5476 15.0715 20.7116 13.7885C20.7996 13.0995 20.4496 12.7125 20.2376 12.5905C20.2376 12.5905 20.7656 11.5875 20.7656 10.3765C20.7656 7.94847 19.8126 5.87646 17.7656 5.87646C17.7656 5.87646 17.0546 4.37646 14.7656 4.37646C10.5236 4.37646 8.76562 7.09747 8.76562 10.3765C8.76562 11.4805 9.29362 12.5905 9.29362 12.5905C9.08162 12.7125 8.73163 13.1005 8.81962 13.7885C8.98362 15.0715 9.53963 15.3965 9.89363 15.4235C10.0286 16.6205 11.3156 18.1525 11.7656 18.3755V20.3755C10.7656 23.3755 2.76562 21.3755 2.76562 28.3755H26.7656C26.7656 21.3755 18.7656 23.3755 17.7656 20.3755Z" fill="white"/>
</svg>
