<svg width="28" height="18" viewBox="0 0 28 18" fill="none" xmlns="http://www.w3.org/2000/svg">
<path d="M14 0C11.3516 0 9.05078 1.23828 7.40625 3.0625C7.26953 3.04688 7.14844 3 7 3C4.80078 3 3 4.80078 3 7C1.26953 8.05469 0 9.83594 0 12C0 15.3008 2.69922 18 6 18H22C25.3008 18 28 15.3008 28 12C28 8.84375 25.5117 6.31641 22.4062 6.09375C21.1836 2.57422 17.9258 0 14 0ZM14 2C17.2773 2 20.0117 4.25391 20.7812 7.28125L20.9688 8.0625L21.8125 8.03125C22.0234 8.01953 22.0703 8 22 8C24.2188 8 26 9.78125 26 12C26 14.2188 24.2188 16 22 16H6C3.78125 16 2 14.2188 2 12C2 10.3398 3.00781 8.92188 4.4375 8.3125L5.125 8.03125L5.03125 7.28125C5.01172 7.11719 5 7.02344 5 7C5 5.88281 5.88281 5 7 5C7.14062 5 7.29688 5.01953 7.46875 5.0625L8.09375 5.21875L8.46875 4.71875C9.75 3.07422 11.75 2 14 2Z" fill="white"/>
</svg>
