<svg width="29" height="28" viewBox="0 0 29 28" fill="none" xmlns="http://www.w3.org/2000/svg">
<path d="M12.9988 0.493286L12.3498 4.60386C11.3627 4.84725 10.4207 5.21234 9.57333 5.72165L6.1839 3.30579L3.73198 5.75771L6.11179 9.14713C5.59797 9.99899 5.20584 10.932 4.95794 11.9236L0.883423 12.6087V16.0702L4.95794 16.7914C5.20584 17.7829 5.59797 18.7159 6.11179 19.5678L3.69592 22.9572L6.14785 25.4092L9.53727 23.0293C10.3846 23.5387 11.3266 23.9037 12.3137 24.1471L12.9988 28.2577H16.4603L17.2176 24.1471C18.2001 23.8992 19.1151 23.5071 19.9579 22.9933L23.3834 25.4092L25.8353 22.9572L23.3834 19.5678C23.8882 18.725 24.2939 17.8055 24.5373 16.8274L28.6478 16.0702V12.6087L24.5373 11.9236C24.2939 10.9455 23.8882 10.026 23.3834 9.18319L25.7993 5.75771L23.3474 3.30579L19.9579 5.75771C19.1151 5.24839 18.1686 4.85176 17.1815 4.60386L16.4603 0.493286H12.9988ZM14.7656 6.83944C18.9258 6.83944 22.3017 10.2153 22.3017 14.3755C22.3017 18.5357 18.9258 21.9116 14.7656 21.9116C10.6055 21.9116 7.22958 18.5311 7.22958 14.3755C7.22958 10.2198 10.6055 6.83944 14.7656 6.83944ZM14.7656 8.67838C11.6286 8.67838 9.06852 11.2385 9.06852 14.3755C9.06852 17.5125 11.6286 20.0726 14.7656 20.0726C17.9027 20.0726 20.4627 17.5125 20.4627 14.3755C20.4627 11.2385 17.9027 8.67838 14.7656 8.67838ZM14.7296 11.9957C16.0502 11.9957 17.1454 13.0504 17.1454 14.3755C17.1454 15.6961 16.0502 16.7553 14.7296 16.7553C13.409 16.7553 12.3498 15.6961 12.3498 14.3755C12.3498 13.0504 13.409 11.9957 14.7296 11.9957Z" fill="white"/>
</svg>
